<?xml version="1.0" standalone="no"?><!DOCTYPE svg PUBLIC "-//W3C//DTD SVG 1.1//EN" "http://www.w3.org/Graphics/SVG/1.1/DTD/svg11.dtd"><svg t="1516519048121" fill="#fff" class="icon" style="" viewBox="0 0 1024 1024" version="1.1" xmlns="http://www.w3.org/2000/svg" p-id="1027" xmlns:xlink="http://www.w3.org/1999/xlink" width="16" height="16"><defs><style type="text/css"></style></defs><path d="M395.152247 840.522222c0-19.415189 5.889127-37.402865 15.965623-52.449559-36.670178-12.881378-63.077617-47.847751-63.077617-88.887446 0-19.415189 5.888104-37.404911 15.9646-52.449559-36.669154-12.883425-63.077617-47.848775-63.077617-88.887446 0-17.116843 4.600785-33.264615 12.698207-47.114041L159.588183 510.73417c-51.988048 0-94.223988-42.280966-94.223988-94.225011 0-51.943023 42.23594-94.223988 94.223988-94.223988l347.364359 0-109.913319-63.446008c-22.406313-12.237719-38.325887-32.343639-44.905746-56.45171-6.39464-23.511483-2.990101-47.986921 9.525957-68.87567 25.625634-42.742477 83.549881-59.028395 129.190361-36.254715 2.852978 1.381463 64.433498 31.470759 252.034177 125.281331 88.335884 44.213991 151.528112 92.707448 187.713242 144.143934 28.387537 40.349987 29.860075 68.276013 29.860075 73.429383l0 235.56304c0 39.981596-11.54801 76.879971-34.390251 109.821221-22.062482 31.837102-54.267974 59.305711-95.788623 81.712023-82.102926 44.215014-200.022593 67.587328-340.946182 67.587328-51.943023 0-94.225011-42.283012-94.225011-94.225011L395.152247 840.522222zM808.008202 825.708841c48.101531-25.857924 105.381096-72.969918 105.381096-150.07911L913.389298 440.525132c-0.138146-1.793856-2.346441-21.670555-24.729218-51.574632-22.336728-29.813003-69.356624-75.637678-166.779468-124.314307-191.004195-95.467305-251.160273-124.820843-251.735371-125.096113-0.091074-0.047072-0.138146-0.047072-0.184195-0.093121-23.693632-11.824303-54.750975-3.450589-67.815525 18.312064-5.889127 9.79918-7.407714 21.255093-4.41659 32.252565 3.175319 11.778254 11.087523 21.623483 22.176069 27.696806 0.184195 0.092098 0.367367 0.184195 0.505513 0.276293l127.443577 73.522504c27.466562 15.043624 38.992059 31.9292 34.32169 50.28629-4.646833 18.35709-23.027459 27.650757-54.497195 27.650757l-368.042307 0c-25.948999 0-47.113017 21.165042-47.113017 47.111994 0 25.950022 21.164019 47.114041 47.113017 47.114041l306.23052 0c12.997012 0 23.557532 10.580986 23.557532 23.556509 0 12.974499-10.559497 23.557532-23.557532 23.557532l-70.669526 0c-25.947975 0-47.111994 21.162995-47.111994 47.111994 0 25.947975 21.164019 47.111994 47.111994 47.111994l70.669526 0c12.997012 0 23.557532 10.536984 23.557532 23.557532s-10.559497 23.555485-23.557532 23.555485l-23.556509 0c-25.946952 0-47.113017 21.165042-47.113017 47.113017s21.166065 47.113017 47.113017 47.113017l70.669526 0c12.997012 0 23.556509 10.535961 23.556509 23.557532 0 13.018501-10.558473 23.556509-23.556509 23.556509l-23.556509 0c-25.947975 0-47.113017 21.164019-47.113017 47.111994s21.165042 47.113017 47.113017 47.113017c133.147486 0 243.338121-21.440311 318.630944-61.974493L808.008202 825.711911z" p-id="1028"></path></svg>
